<?xml version="1.0" encoding="UTF-8"?>
<svg width="64px" height="60px" viewBox="0 0 175 171" version="1.1" xmlns="http://www.w3.org/2000/svg" xmlns:xlink="http://www.w3.org/1999/xlink">
    <!-- Generator: Sketch 52.3 (67297) - http://www.bohemiancoding.com/sketch -->
    <title>Maslo</title>
    <desc>Created with Sketch.</desc>
    <defs>
        <filter x="-32.6%" y="-32.3%" width="165.1%" height="164.7%" filterUnits="objectBoundingBox" id="filter-1">
            <feOffset dx="0" dy="0" in="SourceAlpha" result="shadowOffsetOuter1"></feOffset>
            <feGaussianBlur stdDeviation="12.5" in="shadowOffsetOuter1" result="shadowBlurOuter1"></feGaussianBlur>
            <feColorMatrix values="0 0 0 0 0.333333333   0 0 0 0 0.250980392   0 0 0 0 0.501960784  0 0 0 0.12 0" type="matrix" in="shadowBlurOuter1" result="shadowMatrixOuter1"></feColorMatrix>
            <feMerge>
                <feMergeNode in="shadowMatrixOuter1"></feMergeNode>
                <feMergeNode in="SourceGraphic"></feMergeNode>
            </feMerge>
        </filter>
    </defs>
    <g id="320" stroke="none" stroke-width="1" fill="none" fill-rule="evenodd">
        <g id="320---About-All-page" transform="translate(-75.000000, -3185.000000)" fill-rule="nonzero">
            <g id="Block-3" transform="translate(20.000000, 1319.000000)">
                <g id="4-step" transform="translate(0.000000, 1817.000000)">
                    <g id="Maslo" filter="url(#filter-1)" transform="translate(140.000000, 127.500000) rotate(-90.000000) translate(-140.000000, -127.500000) translate(65.500000, 52.500000)">
                        <path d="M117,84.5 C117,115.151748 91.6229987,140 61.0028531,140 C30.3827075,140 8.05506278,119.314248 8.05506278,88.6625 C8.05506278,80.3371942 7.39134819,68.2774876 10.6725611,61.19 C19.4719601,42.1832529 38.6993769,29 61.0028531,29 C91.6229987,29 117,53.8482521 117,84.5 Z" id="Shape" fill="#E2ADF3"></path>
                        <path d="M123,74.5 C123,105.151748 98.2056763,130 67.6203327,130 C36.3308017,130 17.4765239,107.5225 17.4765239,83.6575 C17.4765239,68.95 14.1543553,57.295 17.4765086,50.9125 C27.0931362,32.4371463 45.4509298,19 67.6203327,19 C98.2056763,19 123,43.8482521 123,74.5 Z" id="Shape" fill="#B882F2"></path>
                        <path d="M127.5,84 C127.5,114.651748 102.577351,139.5 71.8337105,139.5 C40.3822378,139.5 25.630698,119.2425 25.630698,95.3775 C25.630698,80.67 15.3324152,72.0675 21.4303781,60.4125 C31.0967773,41.9371463 49.5495679,28.5 71.8337105,28.5 C102.577351,28.5 127.5,53.3482521 127.5,84 Z" id="Shape" fill="#865FEF"></path>
                        <path d="M114.5,74 C114.5,104.651748 89.5980591,129.5 58.8799632,129.5 C27.4546232,129.5 17.1649432,111.185 17.1649432,87.32 C17.1649432,72.6125 0.934383186,66.5075 8.51851041,50.4125 C17.404331,31.5550525 36.6143363,18.5 58.8799632,18.5 C89.5980591,18.5 114.5,43.3482521 114.5,74 Z" id="Shape" fill="#5140EF"></path>
                        <path d="M117,82.2211148 C117,113.026886 92.2585304,138 61.7383857,138 C30.5155545,138 23.6078185,117.082918 23.6078185,96.7236249 C23.6078185,81.9422204 4.26623065,79.1532761 11.7014228,58.5150886 C20.5299821,39.5628678 39.6160891,27 61.7383857,27 C92.2585304,27 117,51.4153431 117,82.2211148 Z" id="Shape" fill="#1D21D5"></path>
                        <path d="M122.5,75.7211148 C122.5,106.526886 98.7976597,131.5 68.1922584,131.5 C35.2197664,131.5 34.9426674,105.00503 33.834424,91.0603082 C32.9929036,80.4741519 10.5596339,72.6532761 18.0155806,52.0150886 C26.8688021,33.0628678 46.0083168,20.5 68.1922584,20.5 C98.7976597,20.5 122.5,44.9153431 122.5,75.7211148 Z" id="Shape" fill="#1B19A5"></path>
                        <path d="M121.5,69.7211148 C121.5,100.526886 97.7805878,125.5 67.1531426,125.5 C35.8205406,125.5 36.5056941,98.4472407 35.8205406,86.7336748 C35.1355398,75.0201089 9.20172439,66.0954873 16.9403246,46.0150886 C25.7999227,27.0628678 44.9532228,14.5 67.1531426,14.5 C97.7805878,14.5 121.5,38.9153431 121.5,69.7211148 Z" id="Shape" fill="#1A1485"></path>
                        <path d="M127.991562,74.6460917 C127.951851,105.459773 103.466852,130.470859 72.6136153,130.510679 C41.760379,130.5505 46.5019877,104.635933 43.8947087,90.6556688 C41.3980332,77.2685437 15.4259477,73.3965465 22.1330646,51.0706442 C31.0824078,32.1020383 50.3931192,19.5110424 72.7567009,19.4821789 C103.609937,19.4423582 128.031272,43.8324102 127.991562,74.6460917 Z" id="Shape" fill="#231861" transform="translate(74.510868, 74.996428) rotate(-30.000000) translate(-74.510868, -74.996428) "></path>
                    </g>
                </g>
            </g>
        </g>
    </g>
</svg>